<?xml version="1.0" encoding="UTF-8" standalone="no"?>
<!-- Created with Inkscape (http://www.inkscape.org/) -->

<svg
   xmlns:dc="http://purl.org/dc/elements/1.1/"
   xmlns:cc="http://creativecommons.org/ns#"
   xmlns:rdf="http://www.w3.org/1999/02/22-rdf-syntax-ns#"
   xmlns:svg="http://www.w3.org/2000/svg"
   xmlns="http://www.w3.org/2000/svg"
   xmlns:sodipodi="http://sodipodi.sourceforge.net/DTD/sodipodi-0.dtd"
   xmlns:inkscape="http://www.inkscape.org/namespaces/inkscape"
   width="165.05769mm"
   height="172.14209mm"
   viewBox="0 0 584.8501 609.95228"
   id="svg4527"
   version="1.1"
   inkscape:version="0.91 r13725"
   sodipodi:docname="scs-logo.svg">
  <defs
     id="defs4529" />
  <sodipodi:namedview
     id="base"
     pagecolor="#ffffff"
     bordercolor="#666666"
     borderopacity="1.0"
     inkscape:pageopacity="0.0"
     inkscape:pageshadow="2"
     inkscape:zoom="0.35"
     inkscape:cx="292.42501"
     inkscape:cy="304.97614"
     inkscape:document-units="px"
     inkscape:current-layer="layer1"
     showgrid="false"
     fit-margin-top="0"
     fit-margin-left="0"
     fit-margin-right="0"
     fit-margin-bottom="0"
     inkscape:window-width="956"
     inkscape:window-height="1036"
     inkscape:window-x="960"
     inkscape:window-y="20"
     inkscape:window-maximized="0" />
  <metadata
     id="metadata4532">
    <rdf:RDF>
      <cc:Work
         rdf:about="">
        <dc:format>image/svg+xml</dc:format>
        <dc:type
           rdf:resource="http://purl.org/dc/dcmitype/StillImage" />
        <dc:title></dc:title>
      </cc:Work>
    </rdf:RDF>
  </metadata>
  <g
     inkscape:label="Layer 1"
     inkscape:groupmode="layer"
     id="layer1"
     transform="translate(-82.574989,-227.38607)">
    <path
       style="fill:#990000;fill-opacity:1"
       d="m 201.52125,835.49825 c -15.52768,-5.02598 -29.42549,-15.55457 -45.38775,-34.38447 -4.60914,-5.43717 -4.79335,-5.87015 -3.23171,-7.59574 1.55297,-1.71601 1.40142,-2.46456 -2.43487,-12.02655 -5.68016,-14.15787 -9.34339,-29.1363 -7.56156,-30.91814 1.1032,-1.1032 1.10616,-1.96006 0.0173,-5.00908 -1.84683,-5.17135 -1.71083,-6.37876 2.04752,-18.17823 3.45508,-10.84736 3.59717,-13.25666 0.62308,-10.56514 -0.95121,0.86083 -2.48153,1.56514 -3.40072,1.56514 -1.4676,0 -1.67126,-1.44317 -1.67126,-11.84288 l 0,-11.84289 8.6025,-9.90711 c 10.36926,-11.94181 11.31294,-13.63453 8.92979,-16.01769 -1.33417,-1.33417 -1.58446,-2.6617 -1.08763,-5.76872 2.11025,-13.19678 14.82412,-27.14001 40.80119,-44.74642 6.46478,-4.38162 11.75415,-8.35626 11.75415,-8.83254 0,-0.47627 -1.8,-1.17006 -4,-1.54175 -2.2,-0.37169 -4,-1.05123 -4,-1.51009 0,-2.25017 11.02455,-9.72595 25.2358,-17.11247 l 15.79882,-8.21169 -2.01731,-2.14732 c -1.10952,-1.18103 -2.01731,-2.67173 -2.01731,-3.31265 0,-2.15089 10.24275,-7.04228 19.41264,-9.27044 4.99805,-1.21446 9.63897,-2.49603 10.31317,-2.84793 0.70704,-0.36906 -2.59105,-2.67932 -7.79325,-5.45905 -10.12586,-5.41063 -10.22845,-5.91501 -2.04868,-10.07208 4.17661,-2.12262 4.34312,-2.34946 2.21938,-3.02351 -1.69962,-0.53944 -4.41254,0.3758 -10.44457,3.52359 -9.29844,4.85237 -12.26233,5.10905 -21.81922,1.88956 -13.97022,-4.70623 -24.83947,-12.6928 -24.83947,-18.2517 0,-2.47994 -6.13731,-15.78327 -10.38731,-22.51571 -3.81314,-6.0404 -3.54813,-6.5227 3.13731,-5.70976 9.94657,1.20949 15.08358,2.60771 18.76891,5.10865 3.12014,2.11738 4.69822,2.4226 12.5255,2.4226 4.92557,0 8.95559,-0.37777 8.95559,-0.83948 0,-2.12622 -13.55696,-5.88531 -33,-9.15027 -27.31555,-4.58696 -39.87714,-9.07365 -48.81767,-17.43647 -5.41599,-5.06603 -9.80394,-13.56271 -10.34876,-20.03901 l -0.33357,-3.96523 8.5,0.20878 8.5,0.20878 -14.5,-4.84445 c -16.93197,-5.65697 -22.22512,-8.16694 -24.69903,-11.71212 -0.99054,-1.41945 -3.23362,-3.94215 -4.98463,-5.60599 -3.73121,-3.54545 -6.31634,-8.55686 -6.31634,-12.24456 0,-1.43978 -1.35,-5.14761 -3,-8.23964 -2.35233,-4.40817 -3,-6.88682 -3,-11.48111 0,-3.22258 0.43019,-5.85923 0.95599,-5.85923 1.38818,0 11.1701,5.84692 13.71998,8.20082 4.22994,3.90481 3.9761,0.79387 -0.29931,-3.6682 -2.38534,-2.48948 -4.63924,-5.73064 -5.00868,-7.20259 -0.36943,-1.47195 -4.09455,-6.76087 -8.27803,-11.75315 -9.350102,-11.15778 -14.0851,-18.25336 -18.785079,-28.15018 -4.069519,-8.56925 -5.072969,-16.57079 -3.62425,-28.89986 l 0.819376,-6.97316 4.5,-0.77471 c 5.277466,-0.90856 6.396323,0.0444 7.396592,6.29971 0.880328,5.50527 7.127131,11.41142 18.326961,17.32753 9.74102,5.14552 22.3017,12.5911 35.46998,21.0255 8.07907,5.17472 12.93771,6.78299 14.22061,4.70721 0.29269,-0.47359 -6.09325,-5.26988 -14.19099,-10.65841 -19.96367,-13.28459 -29.03229,-20.28585 -40.0467,-30.91733 -15.305167,-14.77308 -22.315286,-27.26748 -22.359827,-39.85277 -0.01928,-5.44897 6.289255,-25.17067 9.732546,-30.4258 l 1.741489,-2.65785 2.382282,2.93662 c 1.31026,1.61514 4.84486,6.51206 7.85467,10.88205 3.99686,5.8031 5.47239,7.33734 5.47239,5.69014 0,-5.07662 17.18736,-19.95623 38.7793,-33.57239 6.75362,-4.25892 13.50362,-9.27791 15,-11.15331 2.56717,-3.2174 3.06889,-3.40981 8.89124,-3.40984 6.08362,-3e-5 6.18011,0.0435 6.84953,3.09136 0.54892,2.49921 0.19143,3.60068 -1.8662,5.75 -3.04223,3.17779 -6.46574,10.67296 -10.03312,21.9657 -2.18065,6.90298 -2.62075,10.18509 -2.62075,19.54453 0,6.18661 0.41068,11.67588 0.91262,12.19838 0.50194,0.5225 2.29597,4.5622 3.98673,8.97711 5.96483,15.57536 17.62771,31.57671 31.8012,43.63093 15.40661,13.10297 31.45124,21.16436 63.04313,31.67512 20.1592,6.70706 25.40665,7.63619 51.63191,9.14212 27.27325,1.56611 37.05363,3.53911 45.23908,9.12611 5.25758,3.58857 7.38533,8.09756 7.38533,15.65052 0,7.50325 -1.11754,10.66686 -7.27514,20.59496 -6.22985,10.04458 -13.4911,24.89017 -14.31044,29.25761 -1.52888,8.14962 5.17714,18.56835 19.04335,29.58649 4.97322,3.95175 10.61723,8.64475 12.54223,10.42889 2.23229,2.06894 4.74924,3.35911 6.94901,3.56201 2.80067,0.25833 4.28692,1.35201 7.90653,5.81813 4.8532,5.98821 8.90777,7.98377 7.79772,3.83785 -0.34427,-1.28582 -0.6321,-3.35035 -0.63961,-4.58785 -0.008,-1.3595 -0.62697,-2.25 -1.56331,-2.25 -4.00553,0 -17.45034,-10.47746 -17.45034,-13.59895 0,-1.22114 7.7777,-7.7647 21.52609,-18.11038 10.6448,-8.01024 18.59806,-16.76613 22.58446,-24.86367 4.38242,-8.90195 3.27289,-10.73297 -5.61055,-9.25888 -1.73511,0.28792 -2.04059,-0.30263 -2.30645,-4.45875 -0.40565,-6.34136 1.19822,-8.77849 14.17579,-21.54051 10.76788,-10.58903 11.77239,-12.59322 6.92198,-13.81059 -2.1492,-0.53942 -2.40658,-1.03197 -1.8897,-3.61637 0.32911,-1.64554 0.59838,-4.32346 0.59838,-5.95093 0,-2.42791 2.08566,-5.08962 11.6199,-14.82922 10.1171,-10.33503 11.53863,-12.19397 10.99154,-14.37375 -0.68575,-2.73228 -5.54947,-6.38668 -15.4764,-11.62834 -7.03429,-3.71428 -16.13504,-11.35829 -16.13504,-13.55233 0,-2.19566 0.98209,-1.74582 8.97982,4.11313 7.14472,5.23406 7.75522,5.47954 13.62755,5.47954 9.05368,0 9.66789,-1.32238 4.46698,-9.61732 -2.28706,-3.64764 -3.99621,-6.79415 -3.79811,-6.99226 0.1981,-0.1981 2.11214,0.53302 4.25342,1.6247 4.29288,2.18864 11.39434,2.60402 14.78608,0.86489 3.10883,-1.59408 8.68426,-7.04661 8.68426,-8.49284 0,-0.67128 -0.52967,-1.39706 -1.17705,-1.61285 -0.64738,-0.2158 -0.86709,-0.89389 -0.48824,-1.50688 1.4114,-2.28369 10.83212,-4.3796 23.44535,-5.21609 20.14418,-1.33592 24.69709,-4.18266 29.3377,-18.34362 1.99238,-6.07979 3.10356,-8.14292 4.28598,-7.95773 0.87794,0.1375 2.35259,0.3625 3.277,0.5 1.06896,0.159 1.90958,-0.65997 2.30946,-2.25 l 0.62874,-2.5 12.44053,0.33616 c 6.84229,0.18489 12.80556,0.68492 13.2517,1.11117 1.08329,1.03499 -7.32036,8.339 -13.9752,12.14652 -2.93479,1.67911 -5.33597,3.44335 -5.33597,3.92052 0,2.00915 1.86657,1.75657 4.02895,-0.54519 1.27582,-1.35805 3.14124,-2.46918 4.14536,-2.46918 1.53585,0 1.82556,0.83347 1.8249,5.25 -10e-4,9.88717 -8.56172,23.39607 -21.68458,34.22042 -8.52021,7.02786 -17.93707,12.08782 -19.72876,10.60084 -1.67791,-1.39254 -2.6635,-0.25242 -6.02551,6.97024 -1.58907,3.41383 -2.54448,7.23778 -2.55059,10.2085 -0.0118,5.71251 -1.16852,6.01909 -7.87702,2.08765 l -4.54296,-2.66236 -6.0449,6.54071 c -7.30394,7.90303 -12.26109,15.93649 -15.25761,24.72618 -2.34932,6.89127 -2.97985,14.51175 -1.28728,15.55782 1.43091,0.88435 1.23855,2.11859 -0.61982,3.97696 -2.17681,2.17682 -1.46352,11.66848 1.08882,14.48878 1.48786,1.64407 1.58218,2.26767 0.534,3.53064 -1.69459,2.04186 -0.0134,10.5761 3.41686,17.34548 6.12929,12.09556 20.96664,26.80255 34.90273,34.59605 7.17449,4.01221 16.8221,6.79166 20.57166,5.92664 5.51379,-1.27202 10.8796,-5.26594 13.02283,-9.69325 l 2.10917,-4.35698 -2.63251,-8.90716 c -4.67064,-15.80315 -4.69094,-15.9331 -3.52454,-22.55487 1.25825,-7.14319 1.57871,-7.6036 5.59229,-8.03441 2.72333,-0.29232 3.01238,-0.0154 3.59437,3.44316 0.80842,4.80413 1.49673,5.44348 2.94565,2.73613 1.65167,-3.08616 8.03833,-9.99717 9.23868,-9.99717 1.09,0 0.54905,9.24679 -0.71664,12.25 -0.62027,1.47177 -0.18691,1.75 2.72566,1.75 2.42878,0 4.85473,-1.06252 8.12209,-3.55734 5.57423,-4.25624 9.51505,-5.96394 15.8787,-6.88082 l 4.75,-0.68439 0,5.06128 c 0,2.7837 -0.15785,5.06127 -0.35078,5.06127 -0.19292,0 -1.72731,-0.47986 -3.40975,-1.06636 -3.78315,-1.31882 -8.06724,0.64396 -16.42684,7.52604 -7.07042,5.82075 -9.39995,9.12772 -7.79344,11.06344 0.63414,0.7641 0.84591,1.88614 0.47058,2.49343 -1.2094,1.95685 1.64505,6.90365 5.27987,9.1501 3.77799,2.33492 11.44047,3.01531 16.48036,1.46335 3.47947,-1.07144 3.56237,0.2511 0.26162,4.17382 -2.65159,3.15124 -7.51031,5.84592 -12.24977,6.79381 -2.22121,0.44424 -3.64495,-0.0491 -6.0977,-2.11296 -2.49056,-2.09567 -3.80427,-2.54083 -5.92642,-2.0082 -5.88649,1.47741 -6.52159,3.40395 -8.74378,26.52353 -1.78786,18.60096 -2.58225,23.1961 -4.09734,23.70113 -0.57859,0.19286 -1.56155,-0.76771 -2.18435,-2.13461 -2.6264,-5.76433 -18.28579,-12.41797 -31.32997,-13.31204 -6.61523,-0.45342 -8.34131,-0.21069 -12.36996,1.73955 -8.64345,4.18422 -14.30829,14.93595 -16.63591,31.57455 -1.10919,7.92884 -1.05618,8.49274 1.23226,13.10834 3.05059,6.15276 8.54035,9.87216 22.64007,15.33896 5.91319,2.29269 11.7974,4.83445 13.07603,5.64837 2.14566,1.36583 2.36652,1.32021 2.86663,-0.5922 0.6492,-2.48255 1.18163,-2.5497 4.08608,-0.51535 2.02234,1.41651 2.22251,1.41099 2.22251,-0.0613 0,-1.37419 0.71569,-1.4992 4.75,-0.82964 6.89503,1.14434 12.01847,0.631 16.66179,-1.66944 6.57545,-3.25767 7.50465,-5.14023 10.80499,-21.89088 1.18711,-6.02508 1.56143,-6.61728 6.47886,-10.25 2.87043,-2.12051 5.75113,-3.85547 6.40156,-3.85547 2.02463,0 0.36872,10.87515 -2.04753,13.44713 -1.59843,1.70145 -1.92139,2.94425 -1.41852,5.45861 0.35811,1.79057 0.94451,2.78086 1.3031,2.20065 0.73541,-1.18992 10.19549,-2.63897 23.56575,-3.60969 4.95,-0.35938 9.68918,-0.84228 10.5315,-1.0731 0.99703,-0.27322 1.94742,0.6822 2.72327,2.73767 1.02179,2.70702 0.94598,3.34445 -0.5315,4.4692 -2.35509,1.79288 -15.71406,7.36956 -17.65375,7.36956 -0.86324,0 -1.56952,0.45 -1.56952,1 0,0.55 0.66243,1 1.47207,1 0.943,0 2.03748,2.06653 3.04529,5.75 0.86528,3.1625 2.22785,7.22777 3.02794,9.03393 0.80008,1.80616 1.4547,3.55218 1.4547,3.88005 0,0.32787 -2.11007,0.35829 -4.68904,0.0676 -4.32887,-0.48792 -5.27169,-1.15081 -12.27457,-8.63005 -8.95232,-9.56129 -11.19987,-10.1635 -18.10666,-4.85153 -5.52357,4.24815 -8.45028,9.50074 -6.51624,11.69475 0.75403,0.85539 1.69573,3.98343 2.09265,6.9512 0.52303,3.91062 1.39552,5.97555 3.1696,7.50156 1.60148,1.37753 2.64497,3.57466 3.01776,6.35405 l 0.56984,4.24844 -7.13167,0 c -5.72717,0 -7.5141,-0.38243 -9.07353,-1.94186 -1.80999,-1.80999 -6.05814,-13.50996 -6.05814,-16.68491 0,-3.08913 -4.32697,-3.65004 -15.90294,-2.06151 -9.9213,1.36147 -12.4105,2.14642 -22.86519,7.21041 -15.30616,7.41392 -21.3793,9.47787 -27.88842,9.47787 -6.08593,0 -9.34345,-2.27057 -9.34345,-6.51261 0,-2.08897 -0.94243,-2.9294 -5.58959,-4.98459 -3.48643,-1.54186 -5.7879,-3.23031 -6.11663,-4.48739 -0.45607,-1.744 -1.353,-2.01558 -6.66041,-2.01669 -9.25548,-0.002 -22.90583,2.09504 -24.91158,3.82692 -1.63344,1.41039 -2.12193,1.20449 -6,-2.52908 -4.1356,-3.9815 -4.29325,-4.03778 -7.72179,-2.7566 -5.88872,2.2005 -10.63651,1.65327 -30.6797,-3.53613 l -19.29687,-4.99617 -9.15065,1.35462 c -10.27318,1.5208 -11.90424,2.74034 -13.81647,10.33054 -1.59275,6.3221 -1.36047,7.19517 2.52401,9.48707 1.96918,1.16185 3.98304,3.17167 4.47525,4.46628 0.84929,2.2338 1.34239,2.34991 9.66968,2.27698 9.57724,-0.0839 16.16677,-1.58274 17.25535,-3.92492 3.60644,-7.75956 3.2826,-7.47865 9.05222,-7.85212 3.00695,-0.19464 12.10432,0.70536 20.21639,2 17.00819,2.71441 17.22285,2.92889 11.50079,11.49088 -4.08976,6.11955 -7.04323,6.75393 -11.20758,2.40729 -3.4861,-3.63871 -6.42059,-3.86732 -9.36811,-0.72983 -2.64944,2.8202 -2.74853,3.64847 -0.36181,3.02433 1.30159,-0.34037 4.54323,2.37105 11.5,9.61901 5.32813,5.55115 9.6875,10.4695 9.6875,10.92967 0,0.46017 -3.45109,1.14941 -7.66908,1.53163 l -7.66908,0.69495 -7.36449,-7.30702 -7.3645,-7.30702 0.67045,9.59743 c 0.65045,9.31108 0.60006,9.64672 -1.68893,11.25 -1.29766,0.90891 -3.31451,1.65257 -4.48189,1.65257 -4.98466,0 -7.35704,-7.94832 -3.43248,-11.5 2.732,-2.47243 2.50934,-5.71794 -0.60603,-8.8333 -2.95058,-2.95059 -11.87112,-6.61619 -14.456,-5.94023 -0.94152,0.24622 -5.02523,3.11234 -9.07492,6.36916 -14.68138,11.80703 -24.08548,14.02615 -36.23748,8.55108 -3.23094,-1.45569 -6.30885,-2.64671 -6.83982,-2.64671 -0.53096,0 -4.48864,3.18131 -8.79483,7.06958 -10.84715,9.79442 -13.31143,16.19929 -8.6062,22.36817 1.31159,1.71959 2.56,4.01206 2.77424,5.09439 0.33587,1.69684 1.2202,1.96761 6.42122,1.96607 5.29354,-0.002 7.44132,-0.69012 17.5501,-5.62632 6.33513,-3.0935 13.16313,-7.06862 15.17335,-8.83362 3.5709,-3.13529 3.76463,-3.1822 8.42565,-2.04033 2.6239,0.64281 6.34572,1.37814 8.27072,1.63406 6.90443,0.91792 8.08963,1.46692 10.02728,4.64484 2.63901,4.3282 2.52154,4.72316 -1.40484,4.72316 -1.85765,0 -3.93775,0.675 -4.62244,1.5 -1.79562,2.16359 -4.9272,1.84255 -9.5,-0.97391 -5.08531,-3.13213 -7.14643,-3.13039 -11.76787,0.01 -4.11932,2.79915 -5.14016,7.00776 -1.98213,8.17172 0.9625,0.35475 3.14248,1.69062 4.84439,2.96861 1.70192,1.27799 3.58786,2.32362 4.19098,2.32362 2.18933,0 2.36195,2.2402 0.73585,9.54921 -2.04852,9.2077 -3.11676,9.41479 -10.06319,1.95079 -2.81524,-3.025 -5.79916,-5.5 -6.63092,-5.5 -0.83177,0 -5.34094,4.163 -10.02038,9.2511 -4.67944,5.08811 -9.73818,9.90944 -11.24164,10.71406 -2.56575,1.37315 -2.84979,1.3117 -4.62709,-1.0011 -2.91794,-3.79713 -2.64029,-12.35453 0.53597,-16.51882 1.88641,-2.47322 2.18329,-3.47593 1.25,-4.22201 -2.62124,-2.09545 -5.68195,-2.16848 -14.40007,-0.34361 -4.97894,1.04219 -10.35116,1.68689 -11.93826,1.43266 -9.70877,-1.55518 -19.05948,-3.66323 -20.13564,-4.53943 -1.86106,-1.51526 -1.57237,-10.85245 0.42668,-13.80034 0.92217,-1.35988 3.17217,-4.16131 5,-6.22539 3.60541,-4.07143 4.17348,-6.79666 1.82332,-8.74712 -0.825,-0.68469 -1.5,-2.37611 -1.5,-3.7587 l 0,-2.51382 -9.25,0.50458 c -11.06339,0.6035 -22.07344,4.00711 -32.07723,9.91625 -20.51799,12.11975 -38.07879,38.62839 -45.21984,68.2609 -2.51848,10.4507 -2.57032,11.28624 -1.57877,25.44813 0.56386,8.05346 1.56922,16.21766 2.23413,18.14266 3.13934,9.08882 10.85824,16.04738 21.68225,19.54646 5.76823,1.86469 6.38642,3.77272 1.38245,4.2669 -2.24514,0.22172 -3.17299,0.8287 -3.17299,2.07568 0,2.26045 2.87865,4.84824 11.10806,9.98569 5.8721,3.66582 7.29045,4.12527 12.73506,4.12527 9.03468,0 34.70606,-8.98248 43.43496,-15.19801 1.95228,-1.39015 4.6597,-2.22188 7.40026,-2.27339 3.80318,-0.0715 4.32166,0.18121 4.32166,2.10619 0,1.20308 -1.35,3.32337 -3,4.71176 -1.89726,1.59644 -3,3.46701 -3,5.08889 0,2.14199 0.46125,2.56456 2.79933,2.56456 3.14596,0 18.83201,-10.22493 38.42632,-25.04816 6.63412,-5.01875 12.65524,-9.35264 13.38027,-9.63086 0.72503,-0.27822 2.39941,0.66074 3.72083,2.08658 1.32143,1.42584 3.06134,2.59244 3.86648,2.59244 2.97137,0 10.86485,-6.33071 21.09071,-16.91512 l 10.50429,-10.8726 14.85589,-6.88786 c 24.10579,-11.17653 51.9355,-27.61457 65.60914,-38.75304 5.52205,-4.49823 5.72893,-4.57149 12.92929,-4.57839 7.50978,-0.007 17.8597,-2.11208 32.81745,-6.67418 l 8.5,-2.59249 9.30507,1.64866 c 5.11779,0.90677 14.33974,3.27627 20.49323,5.26556 12.57215,4.06431 16.88324,6.91613 31.50365,20.83991 7.84022,7.46666 8.82046,8.81302 9.93925,13.65158 1.64273,7.10455 11.04073,26.28995 17.25556,35.22608 9.99883,14.37706 16.3,18.48781 25.25105,16.47327 2.3387,-0.52635 5.63626,-0.69806 7.3279,-0.38158 2.73668,0.512 4.26685,-0.39046 13.88183,-8.18718 5.94337,-4.81944 12.19446,-10.69892 13.89132,-13.06551 l 3.08518,-4.30288 -1.61787,-7.69712 c -0.88983,-4.23341 -2.11743,-8.97689 -2.72799,-10.54107 l -1.11012,-2.84396 -3.52383,3.09396 c -4.1011,3.60082 -5.01989,3.77405 -6.39445,1.20566 -2.40423,-4.49239 -5.42864,-31.11174 -3.53482,-31.11174 0.28873,0 3.55198,1.52438 7.25167,3.38751 7.58339,3.81893 16.20376,6.61249 20.40487,6.61249 4.02816,0 3.48352,2.11139 -1.2406,4.80944 l -4.0437,2.30944 3.19574,3.63976 c 5.74341,6.54138 7.17987,11.26192 6.7358,22.13542 -0.4972,12.1744 -2.78159,17.19348 -11.88188,26.10594 -19.72681,19.31965 -44.96766,24.41658 -63.25967,12.77414 -8.03458,-5.11382 -13.20597,-12.61173 -23.79816,-34.50454 -5.38334,-11.12672 -11.55497,-22.82672 -13.71475,-26 -13.94635,-20.49091 -35.9268,-29.101 -63.17428,-24.74637 -5.775,0.92295 -11.14844,2.03627 -11.94098,2.47406 -1.76996,0.97769 6.46969,6.4487 25.88408,17.18663 l 13.4431,7.43526 1.30714,7.44041 c 2.6301,14.97094 -1.01462,27.19231 -11.67028,39.13244 -13.81939,15.48525 -33.26613,22.39377 -51.88869,18.43366 -12.21343,-2.5972 -23.39738,-8.67408 -32.27521,-17.53696 -7.94893,-7.93555 -8.37084,-8.76249 -10.84281,-21.2518 -0.61648,-3.11468 -1.74484,-5.9025 -2.50747,-6.19515 -1.36951,-0.52553 -3.7855,0.59993 -16.50888,7.69045 -3.575,1.99229 -7.5125,3.63257 -8.75,3.64506 -1.2375,0.0125 -2.25,0.47271 -2.25,1.02271 0,0.55 0.675,1 1.5,1 0.825,0 1.5,0.47296 1.5,1.05103 0,1.4147 -6.25461,3.94897 -9.74609,3.94897 -3.80908,0 -15.38169,5.71479 -22.98726,11.35158 -6.70324,4.96803 -11.50379,10.80691 -13.25988,16.12792 -0.95745,2.90109 -2.1376,3.76896 -9.32221,6.85544 -22.33089,9.59325 -55.2639,20.88257 -74.92096,25.68265 -11.38122,2.77919 -13.4757,2.97875 -30.73851,2.92863 -14.9287,-0.0433 -19.59284,-0.39938 -24.02509,-1.83401 z m 283.41927,-56.99841 c 24.30603,-8.71576 28.19383,-28.04645 7.82426,-38.90332 -8.32985,-4.43976 -16.10943,-6.21241 -27.20363,-6.19861 -19.88261,0.0247 -35.56962,8.01103 -39.13942,19.92596 -3.25173,10.8533 7.25738,22.12789 24.7336,26.5352 8.47313,2.13683 26.00226,1.43161 33.78519,-1.35923 z m 30.92444,-452.32013 c 0.31733,-1.21348 0.48231,-2.28193 0.36663,-2.37432 -0.11569,-0.0924 -2.81248,0.0574 -5.99287,0.33286 -4.29224,0.37176 -6.04094,0.98368 -6.78519,2.37432 -0.93167,1.74085 -0.54827,1.87347 5.4159,1.87347 5.77764,0 6.47617,-0.22031 6.99553,-2.20633 z"
       id="path3697"
       inkscape:connector-curvature="0" />
  </g>
</svg>
